<?xml version="1.0" encoding="UTF-8" standalone="no"?>
<!-- Generator: Adobe Illustrator 16.0.0, SVG Export Plug-In . SVG Version: 6.00 Build 0)  -->

<svg
   version="1.1"
   x="0px"
   y="0px"
   width="11.970182"
   height="17.208746"
   viewBox="0 0 11.970182 17.208746"
   enable-background="new 0 0 21.875 21.875"
   xml:space="preserve"
   id="svg33"
   sodipodi:docname="start-marker.svg"
   xmlns:inkscape="http://www.inkscape.org/namespaces/inkscape"
   xmlns:sodipodi="http://sodipodi.sourceforge.net/DTD/sodipodi-0.dtd"
   xmlns="http://www.w3.org/2000/svg"
   xmlns:svg="http://www.w3.org/2000/svg"><defs
   id="defs37" /><sodipodi:namedview
   id="namedview35"
   pagecolor="#505050"
   bordercolor="#eeeeee"
   borderopacity="1"
   inkscape:showpageshadow="0"
   inkscape:pageopacity="0"
   inkscape:pagecheckerboard="0"
   inkscape:deskcolor="#505050"
   showgrid="true"
   inkscape:zoom="32"
   inkscape:cx="2.359375"
   inkscape:cy="8.9375"
   inkscape:window-width="2560"
   inkscape:window-height="1377"
   inkscape:window-x="1912"
   inkscape:window-y="-8"
   inkscape:window-maximized="1"
   inkscape:current-layer="g13851"><sodipodi:guide
     position="-4.0788149,18.723543"
     orientation="0,20"
     id="guide11728"
     inkscape:locked="false" /><sodipodi:guide
     position="15.921185,18.723543"
     orientation="20,0"
     id="guide11730"
     inkscape:locked="false" /><sodipodi:guide
     position="15.921185,-1.2764572"
     orientation="0,-20"
     id="guide11732"
     inkscape:locked="false" /><sodipodi:guide
     position="-4.0788149,-1.2764572"
     orientation="-20,0"
     id="guide11734"
     inkscape:locked="false" /><inkscape:grid
     type="xygrid"
     id="grid12466" /></sodipodi:namedview>


<g
   id="g13851"
   transform="translate(-4.078815,-1.5147969)"><path
     style="fill:none;fill-opacity:1;stroke:#a4382e;stroke-width:0.0131486;stroke-dasharray:none;stroke-opacity:1"
     d="M 10.005437,1.8438206 V 3.0606898 H 9.9925858 V 1.8347395 Z"
     id="path12958"
     inkscape:label="topline" /><path
     style="fill:none;fill-opacity:1;stroke:#a4382e;stroke-width:0.0201437;stroke-dasharray:none;stroke-opacity:1"
     d="m 9.9982241,10.791512 v 7.557761 h -0.00486 v -7.614158 z"
     id="path13765"
     inkscape:label="bottomline" /><path
     id="path9824"
     style="fill:#000000;stroke-width:0.0826823"
     d="M 9.7602128,18.408064 C 9.6513425,18.234558 8.6020168,16.529903 7.4283792,14.619941 6.2547403,12.70998 5.2111002,11.035664 5.1091794,10.899237 4.786532,10.46736 4.4038172,9.6217276 4.2385444,8.9755147 L 4.0788149,8.3509747 V 7.4806502 6.6103236 L 4.2125708,6.0676058 C 4.3971417,5.3187033 4.8056406,4.4663067 5.2800488,3.8401431 L 5.6794744,3.3129499 6.2227313,2.8637431 6.7659895,2.4145362 7.3447658,2.1299691 7.9235421,1.8454019 8.5775557,1.6800993 9.231571,1.5147968 h 0.800369 0.80037 l 0.654014,0.1653025 0.654013,0.1653026 0.578777,0.2847807 c 1.808709,0.8899563 3.029159,2.6517008 3.259434,4.7050601 l 0.07045,0.6282939 -0.07888,0.7178739 -0.07888,0.7178729 -0.231191,0.6334794 -0.231193,0.6334802 -0.629237,0.986615 c -0.346082,0.542638 -1.532483,2.45363 -2.636449,4.246648 -1.103966,1.79302 -2.051716,3.274431 -2.106112,3.292028 l -0.098899,0.03201 z m 2.3624802,-3.685483 c 1.127179,-1.829988 2.271586,-3.677464 2.543131,-4.105505 l 0.493718,-0.7782533 0.209915,-0.6645001 0.209916,-0.664501 0.0476,-0.6243039 0.0476,-0.6243009 -0.09569,-0.6132383 -0.09569,-0.6132383 -0.214839,-0.5443136 C 15.150196,5.1910541 14.889343,4.6966995 14.688684,4.3918623 L 14.323846,3.8376113 13.773676,3.3334806 13.223506,2.82935 12.557899,2.5032249 C 12.191815,2.3238559 11.650446,2.1144676 11.354855,2.0379175 L 10.817421,1.8987351 10.03194,1.9043079 9.246459,1.9098807 8.7090241,2.0485813 C 7.972985,2.2385304 7.1092799,2.6760317 6.5049234,3.1650389 L 5.9996616,3.5738664 5.5770381,4.135967 5.1544159,4.6980682 4.896189,5.3153406 4.6379621,5.9326149 4.5185126,6.5969159 4.3990631,7.2612188 l 0.051358,0.578776 c 0.09751,1.0988355 0.3610969,1.8331776 1.0273941,2.8623242 0.2537403,0.391922 1.3729188,2.203861 2.4870627,4.02653 1.1141444,1.822671 2.0443211,3.315529 2.0670571,3.317466 0.02273,0.0019 0.963577,-1.493743 2.090753,-3.323732 z M 8.9425951,10.952697 C 7.3246797,10.499758 6.2083003,9.1740455 6.0163918,7.4778057 L 5.9617233,6.9946058 6.0622446,6.3986722 6.1627661,5.8027386 6.4404547,5.2476755 6.7181406,4.6926105 7.1599998,4.2400436 7.6018565,3.7874761 8.1128695,3.5151098 8.6238812,3.2427433 9.2083065,3.1208869 9.7927343,2.9990306 10.429105,3.0816741 c 1.154853,0.149978 1.690338,0.4019129 2.458766,1.1568029 l 0.457988,0.4499184 0.287194,0.5836104 0.287193,0.5836114 0.09449,0.6614595 0.09449,0.6614576 -0.133092,0.6480878 C 13.753221,8.9120758 13.256003,9.7139419 12.42976,10.320461 l -0.43077,0.316212 -0.549428,0.199734 -0.549427,0.199735 -0.702798,0.03553 -0.702799,0.03554 z m 2.4122599,-0.495099 c 0.909772,-0.354702 1.726363,-1.1714802 2.079698,-2.08017 l 0.176826,-0.4547536 0.0378,-0.7027983 0.03781,-0.7027994 L 13.506774,5.9841028 13.326554,5.4511298 13.027561,5.0006774 12.728568,4.5502249 12.246332,4.195223 C 11.981101,3.9999722 11.551094,3.7565018 11.290759,3.6541774 L 10.817421,3.4681334 H 10.03194 9.246459 L 8.7818505,3.6509115 C 8.5263148,3.7514393 8.1110146,3.9813653 7.8589607,4.1618575 L 7.4006816,4.4900246 7.0634319,4.9950595 6.7261821,5.5000944 6.5600498,6.0379649 6.3939189,6.5758353 l 0.00208,0.4667156 c 0.00701,1.6154542 1.0052282,2.9878701 2.5414478,3.4940981 l 0.4744361,0.156339 0.7441402,-0.02904 0.74414,-0.02904 0.454752,-0.177298 z"
     inkscape:label="Main path"
     inkscape:export-filename="finish-marker.svg"
     inkscape:export-xdpi="100"
     inkscape:export-ydpi="100" /><path
     style="display:inline;fill:#a4382e;fill-opacity:1;stroke:#000000;stroke-width:0.00183406;stroke-dasharray:none"
     d="M 9.745611,17.583757 C 9.3355523,16.932404 8.8067454,16.077201 7.9623061,14.699741 6.8841324,12.941011 6.114514,11.693829 5.6342073,10.927009 5.1940645,10.224313 5.0613795,9.9910871 4.9139744,9.6610271 4.6465439,9.0622144 4.5360308,8.6001637 4.4530643,7.7339804 L 4.4086168,7.2699416 4.5282114,6.6050948 4.6478059,5.9402481 4.9051999,5.3234638 5.1625939,4.7066795 5.5859642,4.1455828 C 6.0059416,3.5889827 6.011818,3.5824587 6.3192303,3.3315077 6.7567683,2.9743308 7.1599684,2.7125741 7.623495,2.4847818 8.0891115,2.2559624 8.3289871,2.1647179 8.8273396,2.0268603 9.1856271,1.9277484 9.1996526,1.9257109 9.5846114,1.9168486 L 9.9768347,1.907819 V 2.458792 3.009765 L 9.8718736,3.0003219 C 9.7993509,2.9937972 9.5880908,3.0285378 9.1883013,3.1127316 L 8.60969,3.2345844 8.105544,3.5026998 7.6013979,3.7708151 7.1645882,4.2166501 6.7277787,4.6624853 6.4385589,5.2360185 6.1493392,5.8095517 6.0506382,6.3961156 c -0.098671,0.586386 -0.098693,0.586641 -0.072705,0.8406804 0.014298,0.139764 0.044356,0.363497 0.066797,0.4971844 0.2377304,1.4162313 1.155059,2.5628746 2.467709,3.0845896 0.094444,0.03754 0.3407588,0.11837 0.5473665,0.179629 0.3699415,0.109687 0.3797643,0.111312 0.6463398,0.106888 l 0.2706893,-0.0045 v 3.415596 c 0,1.878577 -0.00273,3.415595 -0.00606,3.415595 -0.00333,0 -0.1046566,-0.156613 -0.2251627,-0.348029 z"
     id="path21177" /><path
     style="display:inline;fill:#783932;fill-opacity:1;stroke:#000000;stroke-width:0.00183406;stroke-dasharray:none"
     d="m 10.021029,14.550932 v -3.469243 l 0.160204,-0.002 c 0.08811,-0.0011 0.289472,-0.0092 0.447466,-0.01786 l 0.287262,-0.01583 0.53033,-0.193566 c 0.291682,-0.106462 0.555189,-0.20926 0.585573,-0.22844 0.147668,-0.09322 0.64777,-0.481339 0.789176,-0.612465 0.332253,-0.3080978 0.607542,-0.6913031 0.823102,-1.1457646 0.188985,-0.3984357 0.283137,-0.7124823 0.410964,-1.3707853 l 0.06358,-0.3274156 -0.0942,-0.6635152 -0.0942,-0.6635154 L 13.63524,5.251496 13.340196,4.6624853 13.034059,4.3636708 C 12.519384,3.8613061 12.258968,3.6558916 11.907646,3.475163 11.535357,3.2836484 11.124869,3.1695448 10.496116,3.0827993 10.313815,3.0576483 10.132343,3.0319356 10.092844,3.02566 L 10.021034,3.01425 V 2.4628239 1.911398 h 0.404173 0.404173 l 0.364147,0.097174 c 0.543595,0.1450597 0.932825,0.2976987 1.633435,0.6405617 l 0.386297,0.1890454 0.550889,0.5033571 0.550889,0.5033572 0.209925,0.3204078 c 0.38922,0.5940649 0.598544,0.9902736 0.817201,1.5467961 0.131704,0.3352128 0.136548,0.3552071 0.227487,0.9391262 l 0.09292,0.5966213 -0.0471,0.629767 -0.0471,0.6297669 -0.208128,0.6578096 c -0.198822,0.6283989 -0.214798,0.668411 -0.357333,0.8949317 -0.531854,0.845235 -1.307447,2.093491 -2.529366,4.070814 -1.669876,2.702213 -2.415457,3.88924 -2.442861,3.88924 -0.0053,0 -0.0097,-1.561159 -0.0097,-3.469242 z"
     id="path21179" /><g
     id="g23115"><path
       id="path22306"
       style="fill:#b7301b;fill-opacity:1;stroke:#000000;stroke-width:0.00183406;stroke-dasharray:none"
       d="M 11.558967,7.6290192 C 11.450741,7.3353506 11.368951,7.0955675 11.368951,7.0719489 c 0,-0.025711 0.57441,-0.4096772 0.612873,-0.4096772 0.01744,0 0.09498,0.1820596 0.185433,0.4354048 0.04818,0.1349304 0.03592,0.1853761 -0.07101,0.2923126 -0.123893,0.1238933 -0.433166,0.3329428 -0.492563,0.3329428 -0.0056,0 -0.02568,-0.042261 -0.04471,-0.093913 z M 10.927193,5.8783753 c -0.06268,-0.1880751 -0.111897,-0.3496601 -0.109364,-0.3590777 0.0025,-0.00942 0.06075,-0.037452 0.12937,-0.062298 0.06862,-0.024847 0.202084,-0.086882 0.296587,-0.1378563 l 0.171824,-0.092681 0.03465,0.082614 c 0.123565,0.2946433 0.223194,0.5707924 0.21018,0.5825709 -0.01732,0.015675 -0.599734,0.3286834 -0.611581,0.3286834 -0.0042,0 -0.05898,-0.1538796 -0.121662,-0.3419547 z M 9.8373231,7.2899739 C 9.7556769,7.0888778 9.6943322,6.9155153 9.7010017,6.9047239 c 0.016916,-0.02737 0.5430973,-0.1963625 0.6622573,-0.2126952 0.08475,-0.011616 0.10413,-0.00635 0.14407,0.039178 0.06436,0.07336 0.204415,0.3924156 0.207338,0.472329 0.0023,0.063073 -0.01004,0.0724 -0.263317,0.1988738 -0.146156,0.072984 -0.310702,0.1598092 -0.365658,0.1929458 L 9.985771,7.6556033 Z M 8.6550618,6.9876835 C 8.5507062,6.715841 8.497805,6.5489171 8.5058503,6.5168623 c 0.00686,-0.027314 0.049778,-0.078619 0.095385,-0.1140122 0.1996536,-0.1549415 0.6348906,-0.3798469 0.6687119,-0.3455517 0.010523,0.01067 0.085503,0.1735277 0.1666236,0.3619053 0.08112,0.1883777 0.1613483,0.374648 0.1782848,0.4139341 l 0.030794,0.071429 -0.1372854,0.069301 C 9.4328564,7.0119843 9.2562951,7.1197348 9.1160049,7.2133141 8.9757147,7.3068933 8.8509882,7.3891698 8.8388348,7.3961506 8.8263449,7.4033246 8.746445,7.225733 8.6550618,6.9876835 Z M 9.148194,5.6650941 C 9.0752736,5.4813614 9.0125646,5.3231117 9.0088406,5.3134281 c -0.012877,-0.033485 0.3197049,-0.090058 0.5542448,-0.094279 0.2251111,-0.00405 0.2377249,-0.00181 0.287667,0.051006 0.028728,0.030384 0.092566,0.1447359 0.1418625,0.2541165 0.1412441,0.3133978 0.1531841,0.2812502 -0.1210275,0.3258601 -0.1683076,0.027381 -0.5908109,0.1337864 -0.5908109,0.1487929 0,1.26e-4 -0.059662,-0.1500979 -0.1325825,-0.3338305 z" /><path
       style="fill:#050505;stroke:none;stroke-width:0.013587"
       d="m 11.476955,4.956243 c -0.299702,0.2600909 -0.659831,0.4003322 -1.046201,0.4755458 0.04783,0.2193154 0.112159,0.4354236 0.170338,0.6521642 0.01836,0.068275 0.03101,0.1936693 0.103838,0.2277728 0.09115,0.042693 0.247748,-0.039365 0.33723,-0.064715 L 10.784005,5.4997242 c 0.231473,-0.065847 0.439963,-0.1628109 0.638596,-0.2989145 l 0.271735,0.6929381 -0.638588,0.3396756 0.28533,0.8152228 c -0.08927,0.040138 -0.178455,0.082345 -0.271537,0.1130772 -0.04282,0.014155 -0.09352,0.030031 -0.137217,0.010198 -0.04852,-0.021963 -0.0726,-0.078723 -0.09382,-0.1239292 -0.04624,-0.09845 -0.08881,-0.1988171 -0.133001,-0.2982601 L 10.168075,5.5404859 C 10.119841,5.4319346 10.072852,5.3226964 10.022948,5.2149023 9.9982432,5.1615863 9.9720082,5.0977248 9.9156557,5.0708976 c -0.104669,-0.049847 -0.282243,-0.022736 -0.395236,-0.016447 -0.392568,0.021846 -0.783574,0.1323173 -1.127721,0.3222407 -0.09883,0.054534 -0.196362,0.1166702 -0.283579,0.1885217 -0.04435,0.036528 -0.09224,0.080122 -0.09955,0.1404546 -0.0102,0.084153 0.04542,0.1797782 0.07481,0.2560153 0.07184,0.1860603 0.14488,0.3717816 0.218685,0.5570681 0.178286,0.4476244 0.353884,0.8964043 0.529415,1.3451158 0.09663,0.247026 0.176174,0.5164571 0.307519,0.7472865 0.333371,-0.4211297 0.787934,-0.768156 1.2635903,-1.0148014 0.136116,-0.07058 0.291496,-0.1619848 0.448057,-0.1713472 0.156293,-0.00929 0.18074,0.1166991 0.118593,0.2350698 -0.01994,0.037991 -0.04406,0.073792 -0.06919,0.1084959 -0.04471,0.061646 -0.09437,0.1193177 -0.144203,0.1768221 0.0243,-0.048935 0.05023,-0.097855 0.06772,-0.1497592 0.03788,-0.1126051 -0.0102,-0.1972426 -0.136061,-0.1685344 -0.119473,0.027246 -0.245231,0.1036099 -0.335664,0.1847706 -0.03782,0.033973 -0.07813,0.078708 -0.07053,0.133625 0.0088,0.06399 0.07048,0.1138992 0.122105,0.1451321 0.138562,0.083822 0.31954,0.080488 0.474715,0.059286 0.394511,-0.053866 0.777275,-0.2380578 1.100551,-0.4647028 0.129867,-0.091037 0.278804,-0.1990099 0.360854,-0.3379774 0.05723,-0.096988 0.01924,-0.188684 -0.01842,-0.2850145 C 12.276005,6.944419 12.230457,6.8264292 12.183503,6.7089693 12.029835,6.3246055 11.880579,5.9384625 11.726963,5.5540715 11.647646,5.3555583 11.581014,5.1432881 11.47698,4.9562423 M 10.131859,5.8258124 C 9.8384527,5.8484174 9.5515217,5.9132034 9.2758797,6.0160306 l 0.380435,0.8831568 c 0.192668,-0.071128 0.3847583,-0.1438596 0.5842433,-0.1941316 0.07114,-0.017922 0.173709,-0.05387 0.243196,-0.014688 0.08508,0.048006 0.122546,0.1929627 0.159861,0.2767544 0.03159,0.070978 0.127004,0.2133167 0.08722,0.2925693 -0.03324,0.066196 -0.156455,0.091296 -0.218548,0.1201235 -0.184198,0.085573 -0.356525,0.1886289 -0.5298803,0.2938334 L 9.6699007,6.9127741 c -0.31387,0.1246607 -0.575261,0.3349064 -0.85598,0.516307 -0.08379,-0.2120938 -0.164514,-0.4254782 -0.245708,-0.6385902 -0.03081,-0.080925 -0.09582,-0.192148 -0.07148,-0.2811431 0.02354,-0.085952 0.125756,-0.1425276 0.194933,-0.1880851 C 8.8747917,6.2006773 9.0724117,6.0976745 9.2758797,6.01603 L 8.9905507,5.2959175 c 0.195515,-0.068887 0.404771,-0.093484 0.611414,-0.094899 0.0742,-5.093e-4 0.175233,-0.014231 0.239496,0.031071 0.05842,0.041176 0.08598,0.123948 0.114827,0.1861681 0.062092,0.1339371 0.1301513,0.2668299 0.1755683,0.4075553 m -2.5407713,-0.108696 0.470057,1.3587032 0.875057,2.5000133 c 0.08766,-0.031614 0.267989,-0.06845 0.316141,-0.1558987 0.03911,-0.071036 -0.02824,-0.1852867 -0.05382,-0.2517125 C 9.1162697,8.9548361 9.0306127,8.7427835 8.9477947,8.5296303 8.7134637,7.9264333 8.4740327,7.3252074 8.2382827,6.7225548 8.0966087,6.360406 7.9660697,5.9911377 7.8084847,5.6355924 l -0.217391,0.081522 m 4.4021943,0.9103312 c 0.05926,0.1289141 0.108042,0.2621886 0.160303,0.3940239 0.02647,0.066729 0.06603,0.1434273 0.05583,0.2173116 -0.01183,0.085572 -0.0874,0.1515858 -0.148832,0.2051088 -0.139606,0.1216467 -0.298558,0.2372709 -0.47488,0.297692 l -0.24457,-0.6929386 0.652173,-0.4211979 m -1.236416,1.3179421 -0.01355,0.013547 z"
       id="path21861"
       inkscape:label="endflag" /></g><path
     style="display:inline;fill:#b7301b;fill-opacity:1;stroke:#000000;stroke-width:0.000648437;stroke-dasharray:none"
     d="m 10.923222,7.1616494 c -0.01215,-0.00831 -0.03084,-0.027397 -0.04153,-0.042426 -0.01741,-0.024464 -0.333195,-0.7250109 -0.328798,-0.7294077 9.93e-4,-9.926e-4 0.03525,-0.00553 0.07612,-0.010091 0.04087,-0.00456 0.117113,-0.017153 0.16942,-0.02799 0.05231,-0.010837 0.103006,-0.019703 0.112666,-0.019703 0.0097,0 0.03801,-0.00574 0.063,-0.012748 0.04385,-0.012305 0.04543,-0.013663 0.04543,-0.039063 0,-0.018182 0.0036,-0.026314 0.01172,-0.026314 0.0065,0 0.01172,-0.00694 0.01172,-0.015625 0,-0.019178 0.01207,-0.021021 0.0128,-0.00195 2.86e-4,0.00752 0.06256,0.1904788 0.138392,0.406576 0.07583,0.2160973 0.137872,0.395771 0.137872,0.3992749 0,0.0035 -0.03332,0.021041 -0.07405,0.038973 -0.207141,0.091202 -0.289967,0.1111188 -0.334763,0.080498 z"
     id="path24121" /><path
     style="fill:#b7301b;fill-opacity:1;stroke:#000000;stroke-width:0.000458515;stroke-dasharray:none"
     d="m 10.29874,5.8262727 c -0.123617,-0.2785195 -0.226513,-0.511114 -0.228658,-0.5168768 -0.0026,-0.00685 0.01027,1.013e-4 0.03705,0.020098 0.05774,0.043111 0.09043,0.059777 0.181822,0.092707 0.07983,0.028762 0.1039,0.039027 0.135345,0.057709 0.0151,0.00897 0.01798,0.015783 0.03245,0.076823 0.0087,0.036837 0.04395,0.1701419 0.07827,0.2962334 0.03432,0.1260915 0.07001,0.2603313 0.07931,0.2983107 0.0093,0.037979 0.02428,0.083908 0.03327,0.1020633 0.009,0.018155 0.0156,0.033765 0.01468,0.034689 -9.24e-4,9.233e-4 -0.03061,0.00323 -0.06597,0.00512 l -0.06429,0.00345 v 0.015402 c 0,0.00847 -0.0019,0.016588 -0.0043,0.018037 -0.0023,0.00145 -0.105404,-0.2252443 -0.22902,-0.5037637 z"
     id="path24183" /></g></svg>
