<?xml version="1.0" encoding="UTF-8" standalone="no"?>
<!-- Generator: Adobe Illustrator 16.0.0, SVG Export Plug-In . SVG Version: 6.00 Build 0)  -->

<svg
   version="1.1"
   x="0px"
   y="0px"
   width="11.970182"
   height="17.208746"
   viewBox="0 0 11.970182 17.208746"
   enable-background="new 0 0 21.875 21.875"
   xml:space="preserve"
   id="svg33"
   sodipodi:docname="start-marker.svg"
   xmlns:inkscape="http://www.inkscape.org/namespaces/inkscape"
   xmlns:sodipodi="http://sodipodi.sourceforge.net/DTD/sodipodi-0.dtd"
   xmlns="http://www.w3.org/2000/svg"
   xmlns:svg="http://www.w3.org/2000/svg"><defs
   id="defs37" /><sodipodi:namedview
   id="namedview35"
   pagecolor="#505050"
   bordercolor="#eeeeee"
   borderopacity="1"
   inkscape:showpageshadow="0"
   inkscape:pageopacity="0"
   inkscape:pagecheckerboard="0"
   inkscape:deskcolor="#505050"
   showgrid="true"
   inkscape:zoom="32"
   inkscape:cx="2.359375"
   inkscape:cy="8.9375"
   inkscape:window-width="2560"
   inkscape:window-height="1377"
   inkscape:window-x="1912"
   inkscape:window-y="-8"
   inkscape:window-maximized="1"
   inkscape:current-layer="g13851"><sodipodi:guide
     position="-4.0788149,18.723543"
     orientation="0,20"
     id="guide11728"
     inkscape:locked="false" /><sodipodi:guide
     position="15.921185,18.723543"
     orientation="20,0"
     id="guide11730"
     inkscape:locked="false" /><sodipodi:guide
     position="15.921185,-1.2764572"
     orientation="0,-20"
     id="guide11732"
     inkscape:locked="false" /><sodipodi:guide
     position="-4.0788149,-1.2764572"
     orientation="-20,0"
     id="guide11734"
     inkscape:locked="false" /><inkscape:grid
     type="xygrid"
     id="grid12466" /></sodipodi:namedview>


<path
   style="fill:#000000;stroke-width:0.0826823"
   d="m 4.1912654,7.7256993 c -0.03207,-0.03207 -0.05829,-0.558945 -0.05829,-1.1708484 V 5.4422956 l -0.113542,0.094237 -0.113543,0.094237 -0.134504,-0.051616 -0.134504,-0.051616 V 5.3878002 5.2480619 L 3.9676144,4.9251136 4.2983424,4.6021642 V 4.0815065 3.5608517 h 0.33073 0.330729 V 3.7440618 3.9272729 L 5.3964774,3.4960151 5.8331584,3.0647573 H 5.955736 6.078315 L 7.172706,4.1614066 C 8.297962,5.2889835 8.354567,5.3697041 8.143075,5.5452263 L 8.019055,5.6481631 7.897412,5.5472133 7.775768,5.4462626 7.752718,6.5912872 7.729668,7.7363123 H 7.068208 6.406751 L 6.381961,7.2608903 6.357171,6.7854669 H 5.951998 5.5468394 l -0.02479,0.4754234 -0.02479,0.475422 -0.623834,0.02385 c -0.343111,0.01311 -0.650069,-0.0023 -0.68213,-0.03446 z m 1.115802,-0.6715224 0.02479,-0.475422 0.571375,-0.024752 0.5713746,-0.024743 0.06814,0.1074281 c 0.03748,0.05908 0.06872,0.2841668 0.06941,0.5001743 l 0.0013,0.392742 H 7.068208 7.522961 V 6.4324334 5.3352608 L 6.737452,4.5530045 5.95193,3.7707472 5.1251494,4.5944263 4.2983664,5.4181064 v 1.0557508 1.0557501 h 0.491968 0.491968 z"
   id="path9822" /><g
   id="g13851"
   transform="translate(-4.078815,-1.5147969)"><path
     id="path9824"
     style="fill:#000000;stroke-width:0.0826823"
     d="M 9.7602128,18.408064 C 9.6513425,18.234558 8.6020168,16.529903 7.4283792,14.619941 6.2547403,12.70998 5.2111002,11.035664 5.1091794,10.899237 4.786532,10.46736 4.4038172,9.6217276 4.2385444,8.9755147 L 4.0788149,8.3509747 V 7.4806502 6.6103236 L 4.2125708,6.0676058 C 4.3971417,5.3187033 4.8056406,4.4663067 5.2800488,3.8401431 L 5.6794744,3.3129499 6.2227313,2.8637431 6.7659895,2.4145362 7.3447658,2.1299691 7.9235421,1.8454019 8.5775557,1.6800993 9.231571,1.5147968 h 0.800369 0.80037 l 0.654014,0.1653025 0.654013,0.1653026 0.578777,0.2847807 c 1.808709,0.8899563 3.029159,2.6517008 3.259434,4.7050601 l 0.07045,0.6282939 -0.07888,0.7178739 -0.07888,0.7178729 -0.231191,0.6334794 -0.231193,0.6334802 -0.629237,0.986615 c -0.346082,0.542638 -1.532483,2.45363 -2.636449,4.246648 -1.103966,1.79302 -2.051716,3.274431 -2.106112,3.292028 l -0.098899,0.03201 z m 2.3624802,-3.685483 c 1.127179,-1.829988 2.271586,-3.677464 2.543131,-4.105505 l 0.493718,-0.7782533 0.209915,-0.6645001 0.209916,-0.664501 0.0476,-0.6243039 0.0476,-0.6243009 -0.09569,-0.6132383 -0.09569,-0.6132383 -0.214839,-0.5443136 C 15.150196,5.1910541 14.889343,4.6966995 14.688684,4.3918623 L 14.323846,3.8376113 13.773676,3.3334806 13.223506,2.82935 12.557899,2.5032249 C 12.191815,2.3238559 11.650446,2.1144676 11.354855,2.0379175 L 10.817421,1.8987351 10.03194,1.9043079 9.246459,1.9098807 8.7090241,2.0485813 C 7.972985,2.2385304 7.1092799,2.6760317 6.5049234,3.1650389 L 5.9996616,3.5738664 5.5770381,4.135967 5.1544159,4.6980682 4.896189,5.3153406 4.6379621,5.9326149 4.5185126,6.5969159 4.3990631,7.2612188 l 0.051358,0.578776 c 0.09751,1.0988355 0.3610969,1.8331776 1.0273941,2.8623242 0.2537403,0.391922 1.3729188,2.203861 2.4870627,4.02653 1.1141444,1.822671 2.0443211,3.315529 2.0670571,3.317466 0.02273,0.0019 0.963577,-1.493743 2.090753,-3.323732 z M 8.9425951,10.952697 C 7.3246797,10.499758 6.2083003,9.1740455 6.0163918,7.4778057 L 5.9617233,6.9946058 6.0622446,6.3986722 6.1627661,5.8027386 6.4404547,5.2476755 6.7181406,4.6926105 7.1599998,4.2400436 7.6018565,3.7874761 8.1128695,3.5151098 8.6238812,3.2427433 9.2083065,3.1208869 9.7927343,2.9990306 10.429105,3.0816741 c 1.154853,0.149978 1.690338,0.4019129 2.458766,1.1568029 l 0.457988,0.4499184 0.287194,0.5836104 0.287193,0.5836114 0.09449,0.6614595 0.09449,0.6614576 -0.133092,0.6480878 C 13.753221,8.9120758 13.256003,9.7139419 12.42976,10.320461 l -0.43077,0.316212 -0.549428,0.199734 -0.549427,0.199735 -0.702798,0.03553 -0.702799,0.03554 z m 2.4122599,-0.495099 c 0.909772,-0.354702 1.726363,-1.1714802 2.079698,-2.08017 l 0.176826,-0.4547536 0.0378,-0.7027983 0.03781,-0.7027994 L 13.506774,5.9841028 13.326554,5.4511298 13.027561,5.0006774 12.728568,4.5502249 12.246332,4.195223 C 11.981101,3.9999722 11.551094,3.7565018 11.290759,3.6541774 L 10.817421,3.4681334 H 10.03194 9.246459 L 8.7818505,3.6509115 C 8.5263148,3.7514393 8.1110146,3.9813653 7.8589607,4.1618575 L 7.4006816,4.4900246 7.0634319,4.9950595 6.7261821,5.5000944 6.5600498,6.0379649 6.3939189,6.5758353 l 0.00208,0.4667156 c 0.00701,1.6154542 1.0052282,2.9878701 2.5414478,3.4940981 l 0.4744361,0.156339 0.7441402,-0.02904 0.74414,-0.02904 0.454752,-0.177298 z"
     inkscape:label="Main path" /><path
     style="fill:none;fill-opacity:1;stroke:#000000;stroke-width:0.0131486;stroke-dasharray:none"
     d="M 10.005437,1.8438206 V 3.0606898 H 9.9925858 V 1.8347395 Z"
     id="path12958"
     inkscape:label="topline" /><path
     style="fill:none;fill-opacity:1;stroke:#000000;stroke-width:0.0201437;stroke-dasharray:none"
     d="m 9.9982241,10.791512 v 7.557761 h -0.00486 v -7.614158 z"
     id="path13765"
     inkscape:label="bottomline" /><path
     style="fill:#32a040;fill-opacity:1;stroke:#000000;stroke-width:0.00183406;stroke-dasharray:none"
     d="M 9.745611,17.583757 C 9.3355523,16.932404 8.8067454,16.077201 7.9623061,14.699741 6.8841324,12.941011 6.114514,11.693829 5.6342073,10.927009 5.1940645,10.224313 5.0613795,9.9910871 4.9139744,9.6610271 4.6465439,9.0622144 4.5360308,8.6001637 4.4530643,7.7339804 L 4.4086168,7.2699416 4.5282114,6.6050948 4.6478059,5.9402481 4.9051999,5.3234638 5.1625939,4.7066795 5.5859642,4.1455828 C 6.0059416,3.5889827 6.011818,3.5824587 6.3192303,3.3315077 6.7567683,2.9743308 7.1599684,2.7125741 7.623495,2.4847818 8.0891115,2.2559624 8.3289871,2.1647179 8.8273396,2.0268603 9.1856271,1.9277484 9.1996526,1.9257109 9.5846114,1.9168486 L 9.9768347,1.907819 V 2.458792 3.009765 L 9.8718736,3.0003219 C 9.7993509,2.9937972 9.5880908,3.0285378 9.1883013,3.1127316 L 8.60969,3.2345844 8.105544,3.5026998 7.6013979,3.7708151 7.1645882,4.2166501 6.7277787,4.6624853 6.4385589,5.2360185 6.1493392,5.8095517 6.0506382,6.3961156 c -0.098671,0.586386 -0.098693,0.586641 -0.072705,0.8406804 0.014298,0.139764 0.044356,0.363497 0.066797,0.4971844 0.2377304,1.4162313 1.155059,2.5628746 2.467709,3.0845896 0.094444,0.03754 0.3407588,0.11837 0.5473665,0.179629 0.3699415,0.109687 0.3797643,0.111312 0.6463398,0.106888 l 0.2706893,-0.0045 v 3.415596 c 0,1.878577 -0.00273,3.415595 -0.00606,3.415595 -0.00333,0 -0.1046566,-0.156613 -0.2251627,-0.348029 z"
     id="path21177" /><path
     style="fill:#21772b;fill-opacity:1;stroke:#000000;stroke-width:0.00183406;stroke-dasharray:none"
     d="m 10.021029,14.550932 v -3.469243 l 0.160204,-0.002 c 0.08811,-0.0011 0.289472,-0.0092 0.447466,-0.01786 l 0.287262,-0.01583 0.53033,-0.193566 c 0.291682,-0.106462 0.555189,-0.20926 0.585573,-0.22844 0.147668,-0.09322 0.64777,-0.481339 0.789176,-0.612465 0.332253,-0.3080978 0.607542,-0.6913031 0.823102,-1.1457646 0.188985,-0.3984357 0.283137,-0.7124823 0.410964,-1.3707853 l 0.06358,-0.3274156 -0.0942,-0.6635152 -0.0942,-0.6635154 L 13.63524,5.251496 13.340196,4.6624853 13.034059,4.3636708 C 12.519384,3.8613061 12.258968,3.6558916 11.907646,3.475163 11.535357,3.2836484 11.124869,3.1695448 10.496116,3.0827993 10.313815,3.0576483 10.132343,3.0319356 10.092844,3.02566 L 10.021034,3.01425 V 2.4628239 1.911398 h 0.404173 0.404173 l 0.364147,0.097174 c 0.543595,0.1450597 0.932825,0.2976987 1.633435,0.6405617 l 0.386297,0.1890454 0.550889,0.5033571 0.550889,0.5033572 0.209925,0.3204078 c 0.38922,0.5940649 0.598544,0.9902736 0.817201,1.5467961 0.131704,0.3352128 0.136548,0.3552071 0.227487,0.9391262 l 0.09292,0.5966213 -0.0471,0.629767 -0.0471,0.6297669 -0.208128,0.6578096 c -0.198822,0.6283989 -0.214798,0.668411 -0.357333,0.8949317 -0.531854,0.845235 -1.307447,2.093491 -2.529366,4.070814 -1.669876,2.702213 -2.415457,3.88924 -2.442861,3.88924 -0.0053,0 -0.0097,-1.561159 -0.0097,-3.469242 z"
     id="path21179" /><path
     style="fill:#09c920;fill-opacity:1;stroke:#000000;stroke-width:0.00183406;stroke-dasharray:none"
     d="M 8.3858445,7.9824606 V 6.9382613 L 9.2031723,6.1211574 10.0205,5.3040535 10.16992,5.4470563 c 0.08218,0.078652 0.435301,0.426447 0.784711,0.7728788 l 0.635291,0.6298761 V 7.9382355 9.02666 H 11.14798 10.706039 V 8.785191 c 0,-0.3138975 -0.03585,-0.5657206 -0.09575,-0.6726515 l -0.04788,-0.08548 -0.198874,0.013117 c -0.109381,0.00721 -0.3693594,0.019669 -0.5777304,0.027677 l -0.3788565,0.01456 -0.012874,0.1572394 c -0.00708,0.086482 -0.019342,0.2989369 -0.027248,0.4721228 L 9.3524514,9.02666 H 8.8691479 8.3858445 Z"
     id="path21181" /></g></svg>
