<svg
   width="49.936474"
   height="33.555988"
   viewBox="0 0 49.936474 33.555988"
   version="1.1"
   id="SVGRoot"
   sodipodi:docname="raiLogo.svg"
   xml:space="preserve"
   inkscape:export-filename="raiLime.svg"
   inkscape:export-xdpi="96"
   inkscape:export-ydpi="96"
   inkscape:version="1.2.2 (732a01da63, 2022-12-09)"
   xmlns:inkscape="http://www.inkscape.org/namespaces/inkscape"
   xmlns:sodipodi="http://sodipodi.sourceforge.net/DTD/sodipodi-0.dtd"
   xmlns="http://www.w3.org/2000/svg"
   xmlns:svg="http://www.w3.org/2000/svg"><sodipodi:namedview
     id="namedview388"
     pagecolor="#505050"
     bordercolor="#eeeeee"
     borderopacity="1"
     inkscape:showpageshadow="0"
     inkscape:pageopacity="0"
     inkscape:pagecheckerboard="0"
     inkscape:deskcolor="#505050"
     inkscape:document-units="px"
     showgrid="true"
     inkscape:zoom="20.48"
     inkscape:cx="10.180664"
     inkscape:cy="20.3125"
     inkscape:window-width="2560"
     inkscape:window-height="1377"
     inkscape:window-x="1912"
     inkscape:window-y="-8"
     inkscape:window-maximized="1"
     inkscape:current-layer="layer1"
     inkscape:lockguides="true"><inkscape:grid
       type="xygrid"
       id="grid394"
       originx="-0.060059725"
       originy="-8.0492321" /></sodipodi:namedview><defs
     id="defs383"><clipPath
       clipPathUnits="userSpaceOnUse"
       id="clipPath4704"><path
         style="fill:#274797;stroke:none;stroke-width:0.0657217"
         d="m 4.4569755,11.634455 c -0.6587692,0.1515 -1.2011578,0.683077 -1.3448457,1.346598 -0.3352541,1.548136 -0.034047,3.479365 -0.034047,5.0652 v 17.103271 4.01269 c 0,0.729849 -0.043722,1.468974 0.5374523,2.017594 0.7558373,0.713535 1.993262,0.482115 2.9426098,0.482115 h 7.3540941 22.390588 6.76314 c 0.980524,0 2.278258,0.223 3.217416,-0.0694 0.601656,-0.187281 1.079213,-0.691696 1.213491,-1.312018 0.335268,-1.548109 0.03408,-3.479332 0.03408,-5.0652 V 17.914689 14.033562 c 0,-0.77193 0.01674,-1.531414 -0.659242,-2.054766 -0.821754,-0.636155 -2.17123,-0.379161 -3.149128,-0.379161 H 36.237165 14.568854 7.740053 c -1.0277608,0 -2.2812135,-0.195583 -3.2830775,0.03482 m 36.2451755,3.012509 c 3.301594,-0.540634 4.304049,4.598688 0.984923,5.153953 -3.347097,0.56 -4.372599,-4.599208 -0.984923,-5.153953 m -6.76314,24.186341 h -4.268 l -0.328308,-1.841891 c -1.945486,1.948852 -4.978393,2.662782 -7.61674,1.792621 -2.727975,-0.899764 -3.520838,-4.287067 -2.212006,-6.660475 1.216643,-2.20619 4.323813,-2.637982 6.545668,-3.129635 0.9081,-0.200898 2.679845,-0.305162 3.045777,-1.343528 0.447812,-1.270773 -0.865222,-2.176917 -1.92953,-2.380973 -1.793611,-0.343841 -3.74133,0.48422 -4.005355,2.446755 l -4.071016,-0.7236 c 0.359103,-1.27722 0.800283,-2.444847 1.838523,-3.335138 2.155078,-1.847877 5.906913,-1.96885 8.536002,-1.293928 1.129576,0.289966 2.258823,0.842336 2.970463,1.800448 1.091754,1.469763 1.100553,3.251332 1.100553,4.999418 v 5.986145 c 4.6e-4,1.240579 0.390621,2.456161 0.393969,3.683781 M 16.538701,22.190507 v 4.078472 c -1.493472,0 -3.126672,0.125249 -4.190914,1.315702 -0.974286,1.089742 -0.930687,2.578055 -0.930687,3.946843 v 7.301781 H 6.8207913 V 22.387852 h 4.3336627 v 2.631273 c 1.256171,-1.757033 3.205596,-2.828618 5.384247,-2.828618 m 26.921235,0.197345 V 38.833305 H 38.863627 V 22.387852 h 4.596309 m -14.117233,8.880545 c -1.004294,0.432976 -2.164599,0.64032 -3.217416,0.940022 -0.54985,0.156561 -1.112372,0.274113 -1.641539,0.494811 -1.371998,0.572104 -1.675945,2.501485 -0.131323,3.119899 2.180686,0.873057 4.341739,-0.753662 4.865849,-2.844405 0.120686,-0.481457 0.322201,-1.238145 0.124429,-1.710327 z"
         id="path4706" /></clipPath></defs><g
     inkscape:label="Layer 1"
     inkscape:groupmode="layer"
     id="layer1"
     transform="translate(-0.06005972,-8.0492322)"><rect
       style="fill:#3929bd;fill-opacity:1;stroke-width:0.96644"
       id="rect401"
       width="49.994663"
       height="30.038227"
       x="1.0474478e-07"
       y="11.60097"
       clip-path="url(#clipPath4704)"
       transform="matrix(1.1171095,0,0,1.1171095,-3.2396116,-4.9103219)"
       inkscape:label="rect401" /><path
       style="fill:#ffffff;fill-opacity:1;stroke:#000000;stroke-width:0.0527832"
       d="m 4.3457031,21.240234 v -9.155273 h 2.3918622 2.3918621 l 0.012923,1.474747 0.012923,1.474747 0.2634341,-0.339493 c 0.3663711,-0.47215 1.0501065,-1.124931 1.5562795,-1.485821 0.234509,-0.167199 0.712025,-0.44394 1.061146,-0.614979 0.879804,-0.431026 1.655723,-0.640782 2.697754,-0.72929 l 0.402832,-0.03422 v 2.27559 2.27559 l -0.524903,4e-4 c -1.286186,9.82e-4 -2.489267,0.272512 -3.261392,0.736081 -0.654216,0.392779 -1.244386,1.089441 -1.5300964,1.806193 -0.3699609,0.928109 -0.3955879,1.370954 -0.396082,6.844533 l -4.175e-4,4.626465 H 6.8847656 4.3457031 Z"
       id="path4279"
       transform="translate(0.06005972,8.0492322)" /><path
       style="fill:#ffffff;fill-opacity:1;stroke:#000000;stroke-width:0.0527832"
       d="m 22.417213,30.682275 c -0.96077,-0.127688 -1.997366,-0.500846 -2.609768,-0.939475 -1.721997,-1.233371 -2.416527,-3.68887 -1.671301,-5.90886 0.615754,-1.834302 1.988718,-2.919416 4.66659,-3.688214 0.624933,-0.179414 1.918779,-0.46884 3.515625,-0.786427 1.345677,-0.267633 1.60929,-0.338452 2.024665,-0.543917 0.430835,-0.213113 0.683945,-0.442519 0.840437,-0.761727 0.192533,-0.392723 0.194785,-0.932725 0.0056,-1.34067 -0.569843,-1.228708 -2.529604,-1.871257 -4.211648,-1.380877 -0.670389,0.195444 -1.064362,0.423045 -1.517273,0.87654 -0.43851,0.439076 -0.645906,0.786835 -0.79924,1.340158 -0.05496,0.198336 -0.111209,0.37189 -0.124995,0.385676 -0.02819,0.02819 -0.224443,-0.0038 -2.662849,-0.433553 -0.953369,-0.168041 -1.749205,-0.318719 -1.768525,-0.33484 -0.05759,-0.04805 0.42206,-1.413757 0.670982,-1.910478 0.327133,-0.65279 0.652879,-1.103359 1.126243,-1.557807 1.035192,-0.993826 2.485828,-1.637742 4.365831,-1.93793 0.797988,-0.127417 3.092089,-0.127461 3.90625,-7.4e-5 1.331835,0.208384 2.214228,0.468576 3.034591,0.894815 1.743707,0.905981 2.638072,2.393266 2.870379,4.773299 0.03225,0.330437 0.05225,2.123264 0.05257,4.711914 5.37e-4,4.456322 0.01331,4.781273 0.246753,6.278141 0.07958,0.510254 0.158744,1.164153 0.175928,1.45311 l 0.03124,0.525376 -2.362453,-0.01268 -2.362453,-0.01268 -0.181471,-1.000977 c -0.09981,-0.550537 -0.182653,-1.007623 -0.184098,-1.015747 -0.0014,-0.0081 -0.1839,0.142421 -0.405458,0.334545 -1.09954,0.953464 -2.446499,1.607446 -3.924386,1.905388 -0.609407,0.122856 -2.121111,0.171255 -2.747756,0.08797 z m 3.779076,-3.460852 c 1.270875,-0.325261 2.447769,-1.411169 2.972281,-2.742491 0.243372,-0.617729 0.39176,-1.334651 0.394423,-1.905622 0.0013,-0.287854 -0.01956,-0.544422 -0.04656,-0.57146 -0.03282,-0.03286 -0.194079,0.0053 -0.488282,0.115657 -0.436928,0.16384 -0.868513,0.285303 -3.042831,0.856353 -1.90986,0.501596 -2.278969,0.65326 -2.693381,1.106693 -0.728193,0.796759 -0.743207,1.937093 -0.03411,2.590716 0.656563,0.605199 1.850203,0.828678 2.938462,0.550154 z"
       id="path4281"
       transform="translate(0.06005972,8.0492322)" /><path
       style="fill:#ffffff;fill-opacity:1;stroke:#000000;stroke-width:0.0527832"
       d="m 40.136719,21.240234 v -9.155273 h 2.539062 2.539063 v 9.155273 9.155274 h -2.539063 -2.539062 z"
       id="path4283"
       transform="translate(0.06005972,8.0492322)" /><path
       style="fill:#ffffff;fill-opacity:1;stroke:#000000;stroke-width:0.0527832"
       d="M 42.332899,9.1577422 C 41.299252,9.0195068 40.429323,8.2730625 40.058216,7.205946 39.502881,5.6090797 40.178971,4.0653704 41.656262,3.557145 c 0.480833,-0.1654189 1.252541,-0.2100974 1.689669,-0.097824 0.99699,0.2560687 1.790735,1.0865754 2.065592,2.1612596 0.119263,0.4663114 0.127681,1.1771634 0.01894,1.5989343 -0.237156,0.9198193 -0.954853,1.6201672 -1.900186,1.8542532 -0.384589,0.095233 -0.862545,0.1287529 -1.197374,0.083975 z"
       id="path4285"
       transform="translate(0.06005972,8.0492322)" /></g></svg>